<?xml version='1.0' encoding='utf-8'?>
<svg xmlns="http://www.w3.org/2000/svg" viewBox="0 0 100 100" id="glisign" version="1.1">
	<defs>
		<path id="tree" d="M704,452 C702.895431,452 702,452.895431 702,454 L702,462 C702,463.104569 702.895431,464 704,464 L712,464 C713.104569,464 714,463.104569 714,462 L714,454 C714,452.895431 713.104569,452 712,452 L704,452 Z M704,470 C702.895431,470 702,470.895431 702,472 L702,480 C702,481.104569 702.895431,482 704,482 L712,482 C713.104569,482 714,481.104569 714,480 L714,472 C714,470.895431 713.104569,470 712,470 L704,470 Z M670,420 L674,420 L674,424 L670,424 L670,420 Z M686,434 C684.895431,434 684,434.895431 684,436 L684,444 C684,445.104569 684.895431,446 686,446 L694,446 C695.104569,446 696,445.104569 696,444 L696,436 C696,434.895431 695.104569,434 694,434 L686,434 Z M668,416 C666.895431,416 666,416.895431 666,418 L666,426 C666,427.104569 666.895431,428 668,428 L676,428 C677.104569,428 678,427.104569 678,426 L678,418 C678,416.895431 677.104569,416 676,416 L668,416 Z M674,442 L674,482 C674,483.104569 673.104569,484 672,484 C670.895431,484 670,483.104569 670,482 L670,432 C670,430.895431 670.895431,430 672,430 C673.104569,430 674,430.895431 674,432 L674,438 L680,438 C681.104569,438 682,438.895431 682,440 C682,441.104569 681.104569,442 680,442 L674,442 Z M688,438 L692,438 L692,442 L688,442 L688,438 Z M692,474 L692,460 L698,460 C699.104569,460 700,459.104569 700,458 C700,456.895431 699.104569,456 698,456 L692,456 L692,450 C692,448.895431 691.104569,448 690,448 C688.895431,448 688,448.895431 688,450 L688,476 C688,477.104569 688.895431,478 690,478 C690.17265,478 690.34019,477.978123 690.5,477.936991 C690.65981,477.978123 690.82735,478 691,478 L698,478 C699.104569,478 700,477.104569 700,476 C700,474.895431 699.104569,474 698,474 L692,474 Z M706,456 L710,456 L710,460 L706,460 L706,456 Z M706,474 L710,474 L710,478 L706,478 L706,474 Z" transform="translate(-666 -416)"></path>
		
		<path d="M53.53 55.55C53.53 56.66 53.53 65.5 53.53 66.61C53.53 68.13 54.77 69.37 56.29 69.37C57.4 69.37 66.24 69.37 67.35 69.37C68.87 69.37 70.11 68.13 70.11 66.61C70.11 65.5 70.11 56.66 70.11 55.55C70.11 54.03 68.87 52.79 67.35 52.79C66.61 52.79 62.92 52.79 56.29 52.79C54.45 53.61 53.53 54.54 53.53 55.55ZM53.53 80.42C53.53 81.53 53.53 90.37 53.53 91.47C53.53 93 54.77 94.24 56.29 94.24C57.4 94.24 66.24 94.24 67.35 94.24C68.87 94.24 70.11 93 70.11 91.47C70.11 90.37 70.11 81.53 70.11 80.42C70.11 78.9 68.87 77.66 67.35 77.66C66.61 77.66 62.92 77.66 56.29 77.66C54.45 78.48 53.53 79.4 53.53 80.42ZM14.84 8.58L14.84 14.11L9.31 14.11L9.31 8.58L14.84 8.58ZM28.66 30.68C28.66 31.79 28.66 40.63 28.66 41.74C28.66 43.26 29.9 44.5 31.42 44.5C32.53 44.5 41.37 44.5 42.48 44.5C44 44.5 45.24 43.26 45.24 41.74C45.24 40.63 45.24 31.79 45.24 30.68C45.24 29.16 44 27.92 42.48 27.92C41.74 27.92 38.05 27.92 31.42 27.92C29.58 28.75 28.66 29.67 28.66 30.68ZM3.79 5.82C3.79 6.92 3.79 15.76 3.79 16.87C3.79 18.39 5.03 19.63 6.55 19.63C7.66 19.63 16.5 19.63 17.6 19.63C19.13 19.63 20.37 18.39 20.37 16.87C20.37 15.76 20.37 6.92 20.37 5.82C20.37 4.29 19.13 3.05 17.6 3.05C16.87 3.05 13.18 3.05 6.55 3.05C4.71 3.88 3.79 4.8 3.79 5.82ZM14.84 94.24C14.84 95.76 13.6 97 12.08 97C10.55 97 9.31 95.76 9.31 94.24C9.31 87.33 9.31 32.07 9.31 25.16C9.31 23.63 10.55 22.4 12.08 22.4C13.6 22.4 14.84 23.63 14.84 25.16C14.84 25.71 14.84 28.47 14.84 33.45C19.82 33.45 22.58 33.45 23.13 33.45C24.66 33.45 25.9 34.68 25.9 36.21C25.9 37.74 24.66 38.97 23.13 38.97C22.58 38.97 19.82 38.97 14.84 38.97C14.84 72.13 14.84 90.55 14.84 94.24ZM39.71 33.45L39.71 38.97L34.19 38.97L34.19 33.45L39.71 33.45ZM39.71 63.84C44.69 63.84 47.45 63.84 48 63.84C49.53 63.84 50.77 62.61 50.77 61.08C50.77 59.55 49.53 58.32 48 58.32C47.45 58.32 44.69 58.32 39.71 58.32C39.71 53.34 39.71 50.58 39.71 50.03C39.71 48.5 38.47 47.26 36.95 47.26C35.42 47.26 34.19 48.5 34.19 50.03C34.19 53.62 34.19 82.36 34.19 85.95C34.19 87.47 35.42 88.71 36.95 88.71C37.19 88.71 37.42 88.68 37.64 88.62C37.86 88.68 38.09 88.71 38.33 88.71C39.3 88.71 47.04 88.71 48 88.71C49.53 88.71 50.77 87.47 50.77 85.95C50.77 84.42 49.53 83.18 48 83.18C47.45 83.18 44.69 83.18 39.71 83.18L39.71 63.84ZM64.58 58.32L64.58 63.84L59.06 63.84L59.06 58.32L64.58 58.32ZM64.58 83.18L64.58 88.71L59.06 88.71L59.06 83.18L64.58 83.18Z" id="c6EVea7D"></path>
		
		<path d="M16.55 3.05C18.71 3.05 20.47 4.81 20.47 6.98C20.47 9.56 20.47 13.4 20.47 15.99C20.47 18.15 18.71 19.91 16.55 19.91C13.99 19.91 10.26 19.91 7.71 19.91C5.55 19.91 3.79 18.15 3.79 15.99C3.79 13.4 3.79 9.56 3.79 6.98C3.79 4.81 5.55 3.05 7.71 3.05C10.26 3.05 13.99 3.05 16.55 3.05Z" id="enDSppaTb"></path>
		<path d="M41.36 27.77C43.53 27.77 45.29 29.53 45.29 31.7C45.29 34.28 45.29 38.12 45.29 40.7C45.29 42.87 43.53 44.63 41.36 44.63C38.81 44.63 35.08 44.63 32.53 44.63C30.36 44.63 28.61 42.87 28.61 40.7C28.61 38.12 28.61 34.28 28.61 31.7C28.61 29.53 30.36 27.77 32.53 27.77C35.08 27.77 38.81 27.77 41.36 27.77Z" id="b18XmH3ZAV"></path>
		<path d="M66.18 52.49C68.35 52.49 70.11 54.25 70.11 56.41C70.11 59 70.11 62.84 70.11 65.42C70.11 67.59 68.35 69.35 66.18 69.35C63.63 69.35 59.9 69.35 57.35 69.35C55.18 69.35 53.43 67.59 53.43 65.42C53.43 62.84 53.43 59 53.43 56.41C53.43 54.25 55.18 52.49 57.35 52.49C59.9 52.49 63.63 52.49 66.18 52.49Z" id="aAZJM3Ov"></path>
		<path d="M66.18 77.44C68.35 77.44 70.11 79.2 70.11 81.36C70.11 83.95 70.11 87.79 70.11 90.37C70.11 92.54 68.35 94.3 66.18 94.3C63.63 94.3 59.9 94.3 57.35 94.3C55.18 94.3 53.43 92.54 53.43 90.37C53.43 87.79 53.43 83.95 53.43 81.36C53.43 79.2 55.18 77.44 57.35 77.44C59.9 77.44 63.63 77.44 66.18 77.44Z" id="b1423VS5tg"></path>
		
		<path d="M12.13 8.09C14 8.09 15.52 9.61 15.52 11.48C15.52 12.16 15.52 10.8 15.52 11.48C15.52 13.35 14 14.87 12.13 14.87C11.45 14.87 12.81 14.87 12.13 14.87C10.26 14.87 8.74 13.35 8.74 11.48C8.74 10.8 8.74 12.16 8.74 11.48C8.74 9.61 10.26 8.09 12.13 8.09C12.81 8.09 11.45 8.09 12.13 8.09Z" id="hANxKFx71"></path>
		<path d="M36.95 32.81C38.82 32.81 40.34 34.33 40.34 36.2C40.34 36.88 40.34 35.52 40.34 36.2C40.34 38.07 38.82 39.59 36.95 39.59C36.27 39.59 37.63 39.59 36.95 39.59C35.08 39.59 33.56 38.07 33.56 36.2C33.56 35.52 33.56 36.88 33.56 36.2C33.56 34.33 35.08 32.81 36.95 32.81C37.63 32.81 36.27 32.81 36.95 32.81Z" id="a257zTFlGD"></path>
		<path d="M62.37 57.53C64.24 57.53 65.76 59.05 65.76 60.92C65.76 61.6 65.76 60.24 65.76 60.92C65.76 62.79 64.24 64.31 62.37 64.31C61.69 64.31 63.05 64.31 62.37 64.31C60.5 64.31 58.98 62.79 58.98 60.92C58.98 60.24 58.98 61.6 58.98 60.92C58.98 59.05 60.5 57.53 62.37 57.53C63.05 57.53 61.69 57.53 62.37 57.53Z" id="a2dqtFxBOH"></path>
		<path d="M62.37 82.48C64.24 82.48 65.76 84 65.76 85.87C65.76 86.55 65.76 85.19 65.76 85.87C65.76 87.74 64.24 89.26 62.37 89.26C61.69 89.26 63.05 89.26 62.37 89.26C60.5 89.26 58.98 87.74 58.98 85.87C58.98 85.19 58.98 86.55 58.98 85.87C58.98 84 60.5 82.48 62.37 82.48C63.05 82.48 61.69 82.48 62.37 82.48Z" id="cR5TeC4bm"></path>
	</defs>
	
    <g id="gli" transform=" translate(15 15) scale(1.1)">
    	<use href="#tree"></use>
    </g>
    
    <g id="glidefault" transform=" translate(15 15) scale(1.1)">
    	<use href="#tree" stroke="var(--gli-general-light-color, rgb(255,255,255))" stroke-width="var(--primary-icon-stroke-width, 0)" fill="var(--gli-general-color, rgb(153,0,0))" ></use>
    </g>
   
    
    <g id="glistyled" transform=" translate(12.0 12.0) scale(0.8)">

	    <use href="#c6EVea7D" opacity="1" fill="rgb(13,158,250)" fill-opacity="1"></use>
	    
	    <use href="#enDSppaTb" opacity="1" fill="rgb(13,105,220)" fill-opacity="1"></use>
	    <use href="#b18XmH3ZAV" opacity="1" fill="rgb(13,105,220)" fill-opacity="1"></use>
	    <use href="#aAZJM3Ov" opacity="1" fill="rgb(13,105,220)" fill-opacity="1"></use>
	    <use href="#b1423VS5tg" opacity="1" fill="rgb(13,105,220)" fill-opacity="1"></use>
	    
	    <use href="#hANxKFx71" opacity="1" fill="rgb(255,255,255)" fill-opacity="1"></use>
	    <use href="#a257zTFlGD" opacity="1" fill="rgb(255,255,255)" fill-opacity="1"></use>
		<use href="#a2dqtFxBOH" opacity="1" fill="rgb(255,255,255)" fill-opacity="1"></use>
		<use href="#cR5TeC4bm" opacity="1" fill="rgb(255,255,255)" fill-opacity="1"></use>
	    
 	</g>

</svg>